<mxfile host="app.diagrams.net" modified="2023-04-24T13:19:36.517Z" agent="5.0 (Windows NT 10.0; Win64; x64) AppleWebKit/537.36 (KHTML, like Gecko) Chrome/112.0.0.0 Safari/537.36" etag="im3Jq6hoFf13GNnZhIzk" version="21.0.2" type="github">
  <diagram name="Страница 1" id="9wwhK91GliaIkrRcYlGO">
    <mxGraphModel dx="1500" dy="773" grid="1" gridSize="10" guides="1" tooltips="1" connect="1" arrows="1" fold="1" page="1" pageScale="1" pageWidth="827" pageHeight="1169" math="0" shadow="0">
      <root>
        <mxCell id="0" />
        <mxCell id="1" parent="0" />
        <mxCell id="qapMyjUpP5S1gtF-CA2f-28" value="Дисциплины" style="swimlane;childLayout=stackLayout;horizontal=1;startSize=50;horizontalStack=0;rounded=1;fontSize=14;fontStyle=0;strokeWidth=2;resizeParent=0;resizeLast=1;shadow=0;dashed=0;align=center;arcSize=4;whiteSpace=wrap;html=1;" vertex="1" parent="1">
          <mxGeometry x="80" y="260" width="160" height="120" as="geometry" />
        </mxCell>
        <mxCell id="qapMyjUpP5S1gtF-CA2f-29" value="+Название дисциплины&lt;br&gt;+кол-во часов&lt;br&gt;+вид итогового контроля" style="align=left;strokeColor=none;fillColor=none;spacingLeft=4;fontSize=12;verticalAlign=top;resizable=0;rotatable=0;part=1;html=1;" vertex="1" parent="qapMyjUpP5S1gtF-CA2f-28">
          <mxGeometry y="50" width="160" height="70" as="geometry" />
        </mxCell>
        <mxCell id="qapMyjUpP5S1gtF-CA2f-30" value="Кафедры" style="swimlane;childLayout=stackLayout;horizontal=1;startSize=50;horizontalStack=0;rounded=1;fontSize=14;fontStyle=0;strokeWidth=2;resizeParent=0;resizeLast=1;shadow=0;dashed=0;align=center;arcSize=4;whiteSpace=wrap;html=1;" vertex="1" parent="1">
          <mxGeometry x="334" y="200" width="156" height="160" as="geometry" />
        </mxCell>
        <mxCell id="qapMyjUpP5S1gtF-CA2f-31" value="+Название кафедры&lt;br&gt;+факультет&lt;br&gt;+ФИО заведующего&lt;br&gt;+номер комнаты&lt;br&gt;+номер корпуса&lt;br&gt;+телефон" style="align=left;strokeColor=none;fillColor=none;spacingLeft=4;fontSize=12;verticalAlign=top;resizable=0;rotatable=0;part=1;html=1;" vertex="1" parent="qapMyjUpP5S1gtF-CA2f-30">
          <mxGeometry y="50" width="156" height="110" as="geometry" />
        </mxCell>
        <mxCell id="qapMyjUpP5S1gtF-CA2f-32" value="Преподаватели" style="swimlane;childLayout=stackLayout;horizontal=1;startSize=50;horizontalStack=0;rounded=1;fontSize=14;fontStyle=0;strokeWidth=2;resizeParent=0;resizeLast=1;shadow=0;dashed=0;align=center;arcSize=4;whiteSpace=wrap;html=1;" vertex="1" parent="1">
          <mxGeometry x="570" y="220" width="170" height="240" as="geometry" />
        </mxCell>
        <mxCell id="qapMyjUpP5S1gtF-CA2f-33" value="+ФИО преподавателя&lt;br&gt;+Кафедра&lt;br&gt;+Дата рождения&lt;br&gt;+Года приёма на работу&lt;br&gt;+стаж&lt;br&gt;+Должность&lt;br&gt;+пол&lt;br&gt;+адрес&lt;br&gt;+город&lt;br&gt;+телефон&lt;br&gt;+ставка" style="align=left;strokeColor=none;fillColor=none;spacingLeft=4;fontSize=12;verticalAlign=top;resizable=0;rotatable=0;part=1;html=1;" vertex="1" parent="qapMyjUpP5S1gtF-CA2f-32">
          <mxGeometry y="50" width="170" height="190" as="geometry" />
        </mxCell>
        <mxCell id="qapMyjUpP5S1gtF-CA2f-34" value="Ведомости" style="swimlane;childLayout=stackLayout;horizontal=1;startSize=50;horizontalStack=0;rounded=1;fontSize=14;fontStyle=0;strokeWidth=2;resizeParent=0;resizeLast=1;shadow=0;dashed=0;align=center;arcSize=4;whiteSpace=wrap;html=1;" vertex="1" parent="1">
          <mxGeometry x="60" y="520" width="160" height="150" as="geometry" />
        </mxCell>
        <mxCell id="qapMyjUpP5S1gtF-CA2f-35" value="+Преподаватель&lt;br&gt;+дисциплина&lt;br&gt;+студент&lt;br&gt;+оценка&lt;br&gt;+дата" style="align=left;strokeColor=none;fillColor=none;spacingLeft=4;fontSize=12;verticalAlign=top;resizable=0;rotatable=0;part=1;html=1;" vertex="1" parent="qapMyjUpP5S1gtF-CA2f-34">
          <mxGeometry y="50" width="160" height="100" as="geometry" />
        </mxCell>
        <mxCell id="qapMyjUpP5S1gtF-CA2f-36" value="Студенты" style="swimlane;childLayout=stackLayout;horizontal=1;startSize=50;horizontalStack=0;rounded=1;fontSize=14;fontStyle=0;strokeWidth=2;resizeParent=0;resizeLast=1;shadow=0;dashed=0;align=center;arcSize=4;whiteSpace=wrap;html=1;" vertex="1" parent="1">
          <mxGeometry x="334" y="670" width="166" height="180" as="geometry" />
        </mxCell>
        <mxCell id="qapMyjUpP5S1gtF-CA2f-37" value="+номер&lt;br&gt;+ФИО&lt;br&gt;+курс&lt;br&gt;+группа&lt;br&gt;+дата рождения&lt;br&gt;+пол&lt;br&gt;+адрес&lt;br&gt;+телефон" style="align=left;strokeColor=none;fillColor=none;spacingLeft=4;fontSize=12;verticalAlign=top;resizable=0;rotatable=0;part=1;html=1;" vertex="1" parent="qapMyjUpP5S1gtF-CA2f-36">
          <mxGeometry y="50" width="166" height="130" as="geometry" />
        </mxCell>
        <mxCell id="qapMyjUpP5S1gtF-CA2f-38" value="Группы" style="swimlane;childLayout=stackLayout;horizontal=1;startSize=50;horizontalStack=0;rounded=1;fontSize=14;fontStyle=0;strokeWidth=2;resizeParent=0;resizeLast=1;shadow=0;dashed=0;align=center;arcSize=4;whiteSpace=wrap;html=1;" vertex="1" parent="1">
          <mxGeometry x="580" y="525" width="160" height="135" as="geometry" />
        </mxCell>
        <mxCell id="qapMyjUpP5S1gtF-CA2f-39" value="+год поступления&lt;br&gt;+код специальности&lt;br&gt;+программа обучения&lt;br&gt;+форма обучения&lt;br&gt;+староста" style="align=left;strokeColor=none;fillColor=none;spacingLeft=4;fontSize=12;verticalAlign=top;resizable=0;rotatable=0;part=1;html=1;" vertex="1" parent="qapMyjUpP5S1gtF-CA2f-38">
          <mxGeometry y="50" width="160" height="85" as="geometry" />
        </mxCell>
      </root>
    </mxGraphModel>
  </diagram>
</mxfile>
